<svg width="240" height="80" viewBox="0 0 240 80" fill="none" xmlns="http://www.w3.org/2000/svg">
<rect width="240" height="80" rx="16" fill="#567BFD"/>
<path d="M113.44 28.888H116.608V51.184H113.44V28.888ZM108.4 36.712H114.352V39.28H108.4V36.712ZM98.776 30.64H101.944V36.016H106.312V30.64H109.456V45.952H98.776V30.64ZM101.944 38.488V43.384H106.312V38.488H101.944ZM120.014 40.888H140.126V43.432H120.014V40.888ZM122.438 48.208H138.11V50.752H122.438V48.208ZM122.438 44.536H125.606V49.216H122.438V44.536ZM122.51 37.168H137.99V39.568H122.51V37.168ZM122.51 29.632H137.822V32.056H125.678V38.2H122.51V29.632ZM124.79 33.424H137.318V35.752H124.79V33.424Z" fill="white"/>
</svg>
